<svg width="72" height="72" viewBox="0 0 72 72" fill="none" xmlns="http://www.w3.org/2000/svg">
<path d="M59.5406 26.9393L37.0406 11.9393C36.7325 11.7337 36.3704 11.624 36 11.624C35.6296 11.624 35.2675 11.7337 34.9594 11.9393L12.4594 26.9393C12.2025 27.1107 11.992 27.3428 11.8464 27.6151C11.7009 27.8874 11.6248 28.1915 11.625 28.5002V52.8752C11.625 53.8698 12.0201 54.8236 12.7233 55.5269C13.4266 56.2302 14.3804 56.6252 15.375 56.6252H56.625C57.6196 56.6252 58.5734 56.2302 59.2766 55.5269C59.9799 54.8236 60.375 53.8698 60.375 52.8752V28.5002C60.3752 28.1915 60.2991 27.8874 60.1536 27.6151C60.008 27.3428 59.7975 27.1107 59.5406 26.9393ZM28.6688 41.6252L15.375 51.0002V32.1401L28.6688 41.6252ZM32.5055 43.5002H39.4945L52.7672 52.8752H19.2328L32.5055 43.5002ZM43.3312 41.6252L56.625 32.1401V51.0002L43.3312 41.6252ZM36 15.7526L55.1977 28.5518L39.4945 39.7502H32.5102L16.807 28.5518L36 15.7526Z" fill="#CCCCCC"/>
</svg>
