<svg width="64" height="64" viewBox="0 0 64 64" fill="none" xmlns="http://www.w3.org/2000/svg">
<path d="M44.555 27.1674L32.555 19.1674C32.3907 19.0578 32.1975 18.9993 32 18.9993C31.8025 18.9993 31.6093 19.0578 31.445 19.1674L19.445 27.1674C19.308 27.2588 19.1957 27.3826 19.1181 27.5279C19.0405 27.6731 18.9999 27.8352 19 27.9999V40.9999C19 41.5304 19.2107 42.0391 19.5858 42.4141C19.9609 42.7892 20.4696 42.9999 21 42.9999H43C43.5304 42.9999 44.0391 42.7892 44.4142 42.4141C44.7893 42.0391 45 41.5304 45 40.9999V27.9999C45.0001 27.8352 44.9595 27.6731 44.8819 27.5279C44.8043 27.3826 44.692 27.2588 44.555 27.1674ZM28.09 34.9999L21 39.9999V29.9412L28.09 34.9999ZM30.1362 35.9999H33.8638L40.9425 40.9999H23.0575L30.1362 35.9999ZM35.91 34.9999L43 29.9412V39.9999L35.91 34.9999ZM32 21.2012L42.2388 28.0274L33.8638 33.9999H30.1388L21.7638 28.0274L32 21.2012Z" fill="#930010"/>
</svg>
