<svg width="64" height="65" viewBox="0 0 64 65" fill="none" xmlns="http://www.w3.org/2000/svg">
<path d="M33.5 23.9286C32.4212 23.9286 31.3666 24.2428 30.4696 24.8315C29.5726 25.4201 28.8735 26.2568 28.4607 27.2357C28.0478 28.2146 27.9398 29.2918 28.1503 30.331C28.3607 31.3702 28.8802 32.3247 29.6431 33.0739C30.4059 33.8232 31.3778 34.3334 32.4359 34.5401C33.4939 34.7468 34.5907 34.6407 35.5874 34.2352C36.5841 33.8298 37.4359 33.1431 38.0353 32.2621C38.6346 31.3811 38.9545 30.3454 38.9545 29.2858C38.9545 27.865 38.3799 26.5024 37.3569 25.4977C36.334 24.4931 34.9466 23.9286 33.5 23.9286ZM33.5 32.5002C32.8527 32.5002 32.22 32.3116 31.6818 31.9584C31.1436 31.6052 30.7241 31.1032 30.4764 30.5159C30.2287 29.9286 30.1639 29.2823 30.2902 28.6588C30.4164 28.0352 30.7281 27.4625 31.1858 27.013C31.6435 26.5634 32.2267 26.2573 32.8615 26.1333C33.4964 26.0093 34.1544 26.0729 34.7524 26.3162C35.3504 26.5595 35.8616 26.9715 36.2212 27.5001C36.5808 28.0286 36.7727 28.6501 36.7727 29.2858C36.7727 30.1383 36.4279 30.9559 35.8142 31.5587C35.2004 32.1615 34.368 32.5002 33.5 32.5002ZM33.5 17.5C30.3185 17.5035 27.2684 18.7464 25.0187 20.9559C22.769 23.1654 21.5036 26.1611 21.5 29.2858C21.5 33.4912 23.4786 37.9484 27.2273 42.1766C28.9117 44.0872 30.8074 45.8076 32.8795 47.3061C33.063 47.4323 33.2815 47.5 33.5055 47.5C33.7294 47.5 33.9479 47.4323 34.1314 47.3061C36.1997 45.807 38.0917 44.0866 39.7727 42.1766C43.5159 37.9484 45.5 33.4912 45.5 29.2858C45.4964 26.1611 44.2309 23.1654 41.9813 20.9559C39.7316 18.7464 36.6815 17.5035 33.5 17.5ZM33.5 45.0896C31.2459 43.3485 23.6818 36.9533 23.6818 29.2858C23.6818 26.7284 24.7162 24.2756 26.5575 22.4672C28.3988 20.6588 30.8961 19.6429 33.5 19.6429C36.1039 19.6429 38.6012 20.6588 40.4425 22.4672C42.2838 24.2756 43.3182 26.7284 43.3182 29.2858C43.3182 36.9506 35.7541 43.3485 33.5 45.0896Z" fill="#930010"/>
</svg>
