<svg width="72" height="72" viewBox="0 0 72 72" fill="none" xmlns="http://www.w3.org/2000/svg">
<path d="M35.9999 18.8573C33.8808 18.8573 31.8093 19.4857 30.0473 20.663C28.2853 21.8403 26.912 23.5136 26.1011 25.4714C25.2901 27.4292 25.0779 29.5836 25.4914 31.6619C25.9048 33.7403 26.9252 35.6494 28.4237 37.1479C29.9221 38.6463 31.8312 39.6668 33.9096 40.0802C35.988 40.4936 38.1423 40.2814 40.1001 39.4705C42.0579 38.6595 43.7313 37.2862 44.9086 35.5243C46.0859 33.7623 46.7143 31.6908 46.7143 29.5717C46.7143 26.73 45.5854 24.0048 43.5761 21.9954C41.5668 19.9861 38.8415 18.8573 35.9999 18.8573ZM35.9999 36.0003C34.7284 36.0003 33.4855 35.6233 32.4283 34.9169C31.3711 34.2105 30.5472 33.2065 30.0606 32.0318C29.574 30.8571 29.4467 29.5645 29.6948 28.3175C29.9428 27.0705 30.5551 25.925 31.4542 25.0259C32.3532 24.1269 33.4987 23.5146 34.7457 23.2666C35.9928 23.0185 37.2853 23.1458 38.46 23.6324C39.6347 24.1189 40.6387 24.9429 41.3451 26.0001C42.0515 27.0573 42.4285 28.3002 42.4285 29.5717C42.4285 31.2766 41.7512 32.9118 40.5456 34.1174C39.34 35.323 37.7049 36.0003 35.9999 36.0003ZM35.9999 6C29.7505 6.00709 23.759 8.4928 19.34 12.9118C14.921 17.3308 12.4353 23.3222 12.4282 29.5717C12.4282 37.9825 16.3149 46.8968 23.6783 55.3532C26.987 59.1744 30.7109 62.6152 34.7811 65.6122C35.1414 65.8646 35.5707 66 36.0106 66C36.4505 66 36.8798 65.8646 37.2401 65.6122C41.3028 62.614 45.0195 59.1732 48.3214 55.3532C55.6742 46.8968 59.5716 37.9825 59.5716 29.5717C59.5645 23.3222 57.0788 17.3308 52.6597 12.9118C48.2407 8.4928 42.2493 6.00709 35.9999 6ZM35.9999 61.1791C31.5722 57.6969 16.714 44.9066 16.714 29.5717C16.714 24.4567 18.7459 19.5513 22.3627 15.9345C25.9795 12.3177 30.8849 10.2858 35.9999 10.2858C41.1148 10.2858 46.0203 12.3177 49.6371 15.9345C53.2539 19.5513 55.2858 24.4567 55.2858 29.5717C55.2858 44.9013 40.4276 57.6969 35.9999 61.1791Z" fill="#CCCCCC"/>
</svg>
