<svg width="72" height="72" viewBox="0 0 72 72" fill="none" xmlns="http://www.w3.org/2000/svg">
<path d="M58.118 43.1391L47.0766 38.1914L47.0461 38.1774C46.4729 37.9322 45.8476 37.8338 45.2268 37.8911C44.606 37.9484 44.0093 38.1596 43.4906 38.5055C43.4296 38.5458 43.3709 38.5896 43.3149 38.6367L37.6102 43.5C33.9961 41.7445 30.2649 38.0414 28.5094 34.4742L33.3797 28.6828C33.4266 28.6242 33.4711 28.5656 33.5133 28.5024C33.8518 27.9851 34.0572 27.3922 34.1112 26.7764C34.1651 26.1605 34.066 25.5409 33.8227 24.9727V24.9445L28.861 13.8844C28.5393 13.142 27.9861 12.5236 27.2841 12.1215C26.582 11.7194 25.7687 11.5551 24.9656 11.6531C21.7898 12.071 18.8747 13.6307 16.7647 16.0409C14.6548 18.451 13.4943 21.5468 13.5 24.75C13.5 43.3594 28.6406 58.5 47.25 58.5C50.4532 58.5058 53.549 57.3453 55.9592 55.2353C58.3693 53.1254 59.929 50.2102 60.3469 47.0344C60.4451 46.2316 60.2812 45.4185 59.8795 44.7165C59.4778 44.0145 58.8599 43.4612 58.118 43.1391ZM47.25 54.75C39.2962 54.7413 31.6706 51.5778 26.0464 45.9536C20.4222 40.3294 17.2587 32.7038 17.25 24.75C17.2412 22.4613 18.0658 20.2477 19.5697 18.5225C21.0737 16.7972 23.1542 15.6785 25.4227 15.375C25.4218 15.3844 25.4218 15.3938 25.4227 15.4031L30.3446 26.4188L25.5 32.2172C25.4508 32.2738 25.4062 32.3341 25.3664 32.3977C25.0137 32.9389 24.8068 33.562 24.7658 34.2067C24.7247 34.8514 24.8509 35.4958 25.1321 36.0774C27.2555 40.4203 31.6313 44.7633 36.0211 46.8844C36.607 47.1629 37.2551 47.2848 37.9021 47.2379C38.5491 47.1911 39.1729 46.9772 39.7125 46.6172C39.7727 46.5767 39.8306 46.5328 39.886 46.486L45.5836 41.625L56.5992 46.5586C56.5992 46.5586 56.618 46.5586 56.625 46.5586C56.3253 48.8303 55.2082 50.915 53.4826 52.4227C51.7571 53.9304 49.5414 54.7577 47.25 54.75Z" fill="#CCCCCC"/>
</svg>
