<svg width="64" height="64" viewBox="0 0 64 64" fill="none" xmlns="http://www.w3.org/2000/svg">
<path d="M43.7963 35.8075L37.9075 33.1687L37.8913 33.1612C37.5856 33.0305 37.2521 32.978 36.921 33.0086C36.5899 33.0391 36.2716 33.1517 35.995 33.3362C35.9624 33.3578 35.9311 33.3811 35.9013 33.4062L32.8588 36C30.9313 35.0637 28.9413 33.0887 28.005 31.1862L30.6025 28.0975C30.6275 28.0662 30.6513 28.035 30.6738 28.0012C30.8543 27.7254 30.9638 27.4091 30.9926 27.0807C31.0214 26.7523 30.9686 26.4218 30.8388 26.1187V26.1037L28.1925 20.205C28.0209 19.8091 27.7259 19.4793 27.3515 19.2648C26.9771 19.0503 26.5433 18.9627 26.115 19.015C24.4212 19.2379 22.8665 20.0697 21.7412 21.3551C20.6159 22.6405 19.9969 24.2916 20 26C20 35.925 28.075 44 38 44C39.7084 44.0031 41.3595 43.3841 42.6449 42.2588C43.9303 41.1335 44.7621 39.5788 44.985 37.885C45.0374 37.4568 44.95 37.0232 44.7357 36.6488C44.5215 36.2744 44.1919 35.9793 43.7963 35.8075ZM38 42C33.758 41.9954 29.691 40.3082 26.6914 37.3086C23.6918 34.309 22.0046 30.242 22 26C21.9953 24.7794 22.4351 23.5987 23.2372 22.6786C24.0393 21.7585 25.1489 21.1618 26.3588 21C26.3583 21.005 26.3583 21.01 26.3588 21.015L28.9838 26.89L26.4 29.9825C26.3738 30.0127 26.35 30.0448 26.3288 30.0787C26.1407 30.3674 26.0303 30.6997 26.0084 31.0436C25.9865 31.3874 26.0538 31.7311 26.2038 32.0412C27.3363 34.3575 29.67 36.6737 32.0113 37.805C32.3237 37.9536 32.6694 38.0185 33.0144 37.9935C33.3595 37.9686 33.6922 37.8545 33.98 37.6625C34.0121 37.6409 34.043 37.6175 34.0725 37.5925L37.1113 35L42.9863 37.6312C42.9863 37.6312 42.9963 37.6312 43 37.6312C42.8402 38.8428 42.2444 39.9547 41.3241 40.7588C40.4038 41.5628 39.2221 42.0041 38 42Z" fill="#930010"/>
</svg>
